<?xml version="1.0" encoding="UTF-8"?>
<!DOCTYPE svg PUBLIC "-//W3C//DTD SVG 1.1//EN" "http://www.w3.org/Graphics/SVG/1.1/DTD/svg11.dtd">
<svg xmlns="http://www.w3.org/2000/svg" version="1.1" width="500px" height="500px" style="shape-rendering:geometricPrecision; text-rendering:geometricPrecision; image-rendering:optimizeQuality; fill-rule:evenodd; clip-rule:evenodd" xmlns:xlink="http://www.w3.org/1999/xlink">
<g><path style="opacity:0.999" fill="#222222" d="M 322.5,110.5 C 323.344,112.759 325.011,113.759 327.5,113.5C 346.79,127.148 357.623,145.815 360,169.5C 360.667,197.167 360.667,224.833 360,252.5C 358.217,268.064 352.383,281.731 342.5,293.5C 341.167,293.5 340.5,294.167 340.5,295.5C 328.988,307.483 314.988,314.983 298.5,318C 292.129,318.484 285.795,318.484 279.5,318C 268.659,329.008 257.659,339.841 246.5,350.5C 245.5,350.833 244.833,351.5 244.5,352.5C 243.5,352.833 242.833,353.5 242.5,354.5C 236.179,361.82 229.179,368.486 221.5,374.5C 218.11,373.056 216.777,370.39 217.5,366.5C 217.5,350.167 217.5,333.833 217.5,317.5C 203.546,319.423 190.212,317.423 177.5,311.5C 177.027,310.094 176.027,309.427 174.5,309.5C 156.451,299.401 144.618,284.401 139,264.5C 137.985,260.56 137.485,256.56 137.5,252.5C 137.333,226.831 137.5,201.165 138,175.5C 139.74,176.716 140.74,178.382 141,180.5C 141.333,179.5 141.667,178.5 142,177.5C 143.495,184.784 144.161,192.117 144,199.5C 143.178,197.212 142.511,194.878 142,192.5C 141.578,194.355 141.078,196.189 140.5,198C 142.019,203.723 142.853,209.556 143,215.5C 146.836,217.389 151.003,218.055 155.5,217.5C 155.351,218.552 155.517,219.552 156,220.5C 156.667,221.833 157.333,221.833 158,220.5C 157.889,216.315 158.223,211.982 159,207.5C 159.174,212.351 159.674,217.018 160.5,221.5C 162.948,222.473 165.615,222.806 168.5,222.5C 168.5,216.833 168.5,211.167 168.5,205.5C 169.913,202.781 170.58,199.781 170.5,196.5C 173.442,185.732 179.609,177.399 189,171.5C 198.239,179.374 208.739,181.54 220.5,178C 222.844,177.163 224.844,175.829 226.5,174C 227.5,173.333 228.5,173.333 229.5,174C 237.875,182.58 244.375,192.414 249,203.5C 250,204.5 251,205.5 252,206.5C 252.098,199.369 254.265,193.036 258.5,187.5C 259.906,187.027 260.573,186.027 260.5,184.5C 262.557,180.933 265.223,177.766 268.5,175C 269.833,174.333 271.167,174.333 272.5,175C 282.596,180.6 292.929,180.933 303.5,176C 305.102,173.889 307.102,172.389 309.5,171.5C 315.628,174.96 319.961,179.96 322.5,186.5C 322.427,188.027 323.094,189.027 324.5,189.5C 327.657,195.761 329.324,202.428 329.5,209.5C 329.5,213.5 329.5,217.5 329.5,221.5C 332.167,221.5 334.833,221.5 337.5,221.5C 337.806,218.615 337.473,215.948 336.5,213.5C 336.331,208.819 335.998,204.152 335.5,199.5C 335.829,196.772 335.163,194.438 333.5,192.5C 329.76,182.777 324.093,174.443 316.5,167.5C 315.314,165.208 315.314,162.874 316.5,160.5C 319.761,143.106 313.428,130.606 297.5,123C 275.696,118.9 262.696,127.734 258.5,149.5C 258.983,155.079 260.316,160.412 262.5,165.5C 262.833,166.833 263.167,168.167 263.5,169.5C 262.5,170.5 261.5,171.5 260.5,172.5C 258.801,172.34 257.134,172.506 255.5,173C 256.337,174.011 256.67,175.178 256.5,176.5C 254.833,179.167 253.167,181.833 251.5,184.5C 250.167,185.833 248.833,185.833 247.5,184.5C 246.17,182.508 244.836,180.508 243.5,178.5C 243.573,176.973 242.906,175.973 241.5,175.5C 238.427,173.431 236.094,170.764 234.5,167.5C 235.906,167.027 236.573,166.027 236.5,164.5C 242.985,146.494 237.985,132.827 221.5,123.5C 222.028,122.153 222.195,120.819 222,119.5C 221.667,119.833 221.333,120.167 221,120.5C 218.542,117.507 215.709,117.007 212.5,119C 213.5,119.333 214.5,119.667 215.5,120C 211.833,120.667 208.167,120.667 204.5,120C 206.167,119.667 207.833,119.333 209.5,119C 207.75,117.246 207.083,115.079 207.5,112.5C 208.552,112.649 209.552,112.483 210.5,112C 207.5,111.667 204.5,111.333 201.5,111C 202.743,109.846 203.743,108.512 204.5,107C 202.431,106.676 202.098,105.842 203.5,104.5C 204.689,103.571 206.022,103.238 207.5,103.5C 207.34,105.199 207.506,106.866 208,108.5C 213.102,106.686 218.268,106.353 223.5,107.5C 223.719,108.675 223.386,109.675 222.5,110.5C 220.435,110.953 218.768,111.953 217.5,113.5C 218.5,113.833 219.5,114.167 220.5,114.5C 222.837,113.494 225.17,112.494 227.5,111.5C 228.672,111.919 229.672,112.585 230.5,113.5C 231.452,111.955 231.785,110.288 231.5,108.5C 236.833,108.5 242.167,108.5 247.5,108.5C 247.5,107.5 247.5,106.5 247.5,105.5C 244.833,105.5 242.167,105.5 239.5,105.5C 239.5,104.5 239.5,103.5 239.5,102.5C 231.664,102.874 223.831,103.207 216,103.5C 212.676,102.95 209.509,102.283 206.5,101.5C 207.167,101.5 207.5,101.167 207.5,100.5C 234.761,99.3429 262.095,99.1762 289.5,100C 301.582,100.825 312.582,104.325 322.5,110.5 Z M 213.5,197.5 C 213.973,198.906 214.973,199.573 216.5,199.5C 216.973,200.906 217.973,201.573 219.5,201.5C 220.899,202.89 222.566,203.89 224.5,204.5C 224.973,205.906 225.973,206.573 227.5,206.5C 233.601,211.09 239.601,215.923 245.5,221C 246.793,221.49 248.127,221.657 249.5,221.5C 252.135,220.527 254.135,218.86 255.5,216.5C 267.508,208.497 279.508,200.497 291.5,192.5C 293.062,192.733 294.395,193.4 295.5,194.5C 295.66,196.199 295.494,197.866 295,199.5C 292.416,200.269 290.25,201.602 288.5,203.5C 286.326,203.75 284.659,204.75 283.5,206.5C 281.973,206.427 280.973,207.094 280.5,208.5C 276.317,210.087 272.65,212.421 269.5,215.5C 265.925,216.207 265.758,217.207 269,218.5C 269.765,218.43 270.265,218.097 270.5,217.5C 278.793,214.193 286.793,210.527 294.5,206.5C 296.553,206.598 298.22,205.931 299.5,204.5C 302.003,203.916 304.503,203.249 307,202.5C 307.765,202.57 308.265,202.903 308.5,203.5C 308.675,205.621 308.341,207.621 307.5,209.5C 291.845,215.66 276.178,221.826 260.5,228C 256.01,228.887 251.51,229.721 247,230.5C 226.828,224.999 207.328,217.666 188.5,208.5C 187.488,206.163 187.655,203.83 189,201.5C 194.931,204.531 201.097,206.865 207.5,208.5C 208.287,210.104 209.62,210.771 211.5,210.5C 213.382,211.751 215.382,212.918 217.5,214C 218.793,214.49 220.127,214.657 221.5,214.5C 224.462,216.648 227.795,218.314 231.5,219.5C 232.711,218.726 232.711,217.893 231.5,217C 229.183,214.843 226.516,213.343 223.5,212.5C 216.509,207.696 209.342,203.03 202,198.5C 201.333,196.833 201.333,195.167 202,193.5C 202.725,192.941 203.558,192.608 204.5,192.5C 207.651,193.909 210.651,195.575 213.5,197.5 Z M 216.5,290.5 C 215.22,289.069 213.553,288.402 211.5,288.5C 202.236,284.576 192.903,280.743 183.5,277C 181.274,275.773 179.774,273.939 179,271.5C 178.5,252.503 178.333,233.503 178.5,214.5C 184.726,215.353 190.726,217.02 196.5,219.5C 197.93,220.537 199.597,221.204 201.5,221.5C 205.147,222.991 208.814,224.325 212.5,225.5C 212.973,226.906 213.973,227.573 215.5,227.5C 222.149,230.221 228.816,233.055 235.5,236C 240.75,244.063 247.75,246.063 256.5,242C 259.069,239.521 261.402,236.854 263.5,234C 277.524,228.544 291.524,222.877 305.5,217C 309.71,215.364 314.044,214.197 318.5,213.5C 318.667,233.169 318.5,252.836 318,272.5C 317.167,273.5 316.333,274.5 315.5,275.5C 294.563,284.425 273.563,293.258 252.5,302C 248.428,302.658 244.428,302.325 240.5,301C 233.036,296.236 225.036,292.736 216.5,290.5 Z"/></g>
<g><path style="opacity:0.533" fill="#696968" d="M 207.5,100.5 C 207.5,101.167 207.167,101.5 206.5,101.5C 202.19,102.08 197.857,102.414 193.5,102.5C 197.943,101.199 202.609,100.532 207.5,100.5 Z"/></g>
<g><path style="opacity:1" fill="#252525" d="M 206.5,101.5 C 209.509,102.283 212.676,102.95 216,103.5C 223.831,103.207 231.664,102.874 239.5,102.5C 239.5,103.5 239.5,104.5 239.5,105.5C 242.167,105.5 244.833,105.5 247.5,105.5C 247.5,106.5 247.5,107.5 247.5,108.5C 242.167,108.5 236.833,108.5 231.5,108.5C 231.785,110.288 231.452,111.955 230.5,113.5C 229.672,112.585 228.672,111.919 227.5,111.5C 225.17,112.494 222.837,113.494 220.5,114.5C 219.5,114.167 218.5,113.833 217.5,113.5C 218.768,111.953 220.435,110.953 222.5,110.5C 223.386,109.675 223.719,108.675 223.5,107.5C 218.268,106.353 213.102,106.686 208,108.5C 207.506,106.866 207.34,105.199 207.5,103.5C 206.022,103.238 204.689,103.571 203.5,104.5C 202.098,105.842 202.431,106.676 204.5,107C 203.743,108.512 202.743,109.846 201.5,111C 204.5,111.333 207.5,111.667 210.5,112C 209.552,112.483 208.552,112.649 207.5,112.5C 207.083,115.079 207.75,117.246 209.5,119C 207.833,119.333 206.167,119.667 204.5,120C 208.167,120.667 211.833,120.667 215.5,120C 214.5,119.667 213.5,119.333 212.5,119C 215.709,117.007 218.542,117.507 221,120.5C 221.333,120.167 221.667,119.833 222,119.5C 222.195,120.819 222.028,122.153 221.5,123.5C 202.895,118.222 189.395,124.222 181,141.5C 179.699,149.514 180.532,157.181 183.5,164.5C 183.376,165.107 183.043,165.44 182.5,165.5C 181.153,164.972 179.819,164.805 178.5,165C 178.5,166 178.5,167 178.5,168C 173.761,168.902 171.427,171.735 171.5,176.5C 167.204,182.844 164.204,189.844 162.5,197.5C 160.735,200.123 160.068,203.123 160.5,206.5C 160.5,211.5 160.5,216.5 160.5,221.5C 159.674,217.018 159.174,212.351 159,207.5C 158.223,211.982 157.889,216.315 158,220.5C 157.333,221.833 156.667,221.833 156,220.5C 155.517,219.552 155.351,218.552 155.5,217.5C 151.003,218.055 146.836,217.389 143,215.5C 142.853,209.556 142.019,203.723 140.5,198C 141.078,196.189 141.578,194.355 142,192.5C 142.511,194.878 143.178,197.212 144,199.5C 144.161,192.117 143.495,184.784 142,177.5C 141.667,178.5 141.333,179.5 141,180.5C 140.74,178.382 139.74,176.716 138,175.5C 137.5,201.165 137.333,226.831 137.5,252.5C 136.336,224.336 136.17,196.003 137,167.5C 137.806,158.26 140.306,149.594 144.5,141.5C 145.906,141.027 146.573,140.027 146.5,138.5C 156.974,119.689 172.641,107.689 193.5,102.5C 197.857,102.414 202.19,102.08 206.5,101.5 Z"/></g>
<g><path style="opacity:0.957" fill="#767676" d="M 322.5,110.5 C 324.674,110.75 326.341,111.75 327.5,113.5C 325.011,113.759 323.344,112.759 322.5,110.5 Z"/></g>
<g><path style="opacity:0.998" fill="#242324" d="M 199.5,169.5 C 199.027,168.094 198.027,167.427 196.5,167.5C 192.385,164.93 190.052,161.263 189.5,156.5C 188.841,153.545 188.508,150.545 188.5,147.5C 190.756,135.75 197.923,129.417 210,128.5C 229.254,132.585 235.587,143.919 229,162.5C 220.827,172.503 210.994,174.837 199.5,169.5 Z"/></g>
<g><path style="opacity:0.999" fill="#242424" d="M 281.5,129.5 C 300.801,128.302 309.968,137.302 309,156.5C 303.691,170.237 293.858,175.071 279.5,171C 267.764,164.45 263.931,154.617 268,141.5C 271.156,135.836 275.656,131.836 281.5,129.5 Z"/></g>
<g><path style="opacity:0.078" fill="#bababa" d="M 146.5,138.5 C 146.573,140.027 145.906,141.027 144.5,141.5C 144.427,139.973 145.094,138.973 146.5,138.5 Z"/></g>
<g><path style="opacity:0.049" fill="#d9d9d9" d="M 188.5,147.5 C 188.508,150.545 188.841,153.545 189.5,156.5C 188.06,155.054 187.393,153.221 187.5,151C 187.514,149.615 187.848,148.449 188.5,147.5 Z"/></g>
<g><path style="opacity:0.635" fill="#7c7c7f" d="M 316.5,160.5 C 315.314,162.874 315.314,165.208 316.5,167.5C 315.078,167.25 314.078,166.417 313.5,165C 314.053,163.122 315.053,161.622 316.5,160.5 Z"/></g>
<g><path style="opacity:0.169" fill="#ababae" d="M 236.5,164.5 C 236.573,166.027 235.906,167.027 234.5,167.5C 234.427,165.973 235.094,164.973 236.5,164.5 Z"/></g>
<g><path style="opacity:0.157" fill="#b6b6b6" d="M 262.5,165.5 C 264.519,166.538 264.853,167.872 263.5,169.5C 263.167,168.167 262.833,166.833 262.5,165.5 Z"/></g>
<g><path style="opacity:0.133" fill="#afaeaf" d="M 196.5,167.5 C 198.027,167.427 199.027,168.094 199.5,169.5C 197.973,169.573 196.973,168.906 196.5,167.5 Z"/></g>
<g><path style="opacity:0.902" fill="#515151" d="M 182.5,165.5 C 179.061,169.36 175.395,173.027 171.5,176.5C 171.427,171.735 173.761,168.902 178.5,168C 178.5,167 178.5,166 178.5,165C 179.819,164.805 181.153,164.972 182.5,165.5 Z"/></g>
<g><path style="opacity:0.992" fill="#6f6f71" d="M 260.5,172.5 C 259.5,174.167 258.167,175.5 256.5,176.5C 256.67,175.178 256.337,174.011 255.5,173C 257.134,172.506 258.801,172.34 260.5,172.5 Z"/></g>
<g><path style="opacity:0.004" fill="#cdcdd0" d="M 241.5,175.5 C 242.906,175.973 243.573,176.973 243.5,178.5C 242.094,178.027 241.427,177.027 241.5,175.5 Z"/></g>
<g><path style="opacity:0.149" fill="#a5a5a6" d="M 247.5,184.5 C 248.833,185.833 250.167,185.833 251.5,184.5C 251.38,185.586 250.713,186.253 249.5,186.5C 248.287,186.253 247.62,185.586 247.5,184.5 Z"/></g>
<g><path style="opacity:0.125" fill="#a09f9f" d="M 260.5,184.5 C 260.573,186.027 259.906,187.027 258.5,187.5C 258.427,185.973 259.094,184.973 260.5,184.5 Z"/></g>
<g><path style="opacity:0.086" fill="#bababa" d="M 322.5,186.5 C 323.906,186.973 324.573,187.973 324.5,189.5C 323.094,189.027 322.427,188.027 322.5,186.5 Z"/></g>
<g><path style="opacity:0.239" fill="#949393" d="M 291.5,192.5 C 293.709,191.024 295.042,191.691 295.5,194.5C 294.395,193.4 293.062,192.733 291.5,192.5 Z"/></g>
<g><path style="opacity:0.29" fill="#939393" d="M 333.5,192.5 C 335.163,194.438 335.829,196.772 335.5,199.5C 334.388,197.401 333.721,195.067 333.5,192.5 Z"/></g>
<g><path style="opacity:0.173" fill="#a2a0a0" d="M 213.5,197.5 C 215.027,197.427 216.027,198.094 216.5,199.5C 214.973,199.573 213.973,198.906 213.5,197.5 Z"/></g>
<g><path style="opacity:0.325" fill="#a9a3a9" d="M 216.5,199.5 C 218.027,199.427 219.027,200.094 219.5,201.5C 217.973,201.573 216.973,200.906 216.5,199.5 Z"/></g>
<g><path style="opacity:0.557" fill="#757575" d="M 170.5,196.5 C 170.58,199.781 169.913,202.781 168.5,205.5C 168.215,202.171 168.882,199.171 170.5,196.5 Z"/></g>
<g><path style="opacity:0.098" fill="#aca9ac" d="M 162.5,197.5 C 162.142,200.689 161.475,203.689 160.5,206.5C 160.068,203.123 160.735,200.123 162.5,197.5 Z"/></g>
<g><path style="opacity:0.757" fill="#666666" d="M 299.5,204.5 C 298.22,205.931 296.553,206.598 294.5,206.5C 295.552,204.744 297.219,204.077 299.5,204.5 Z"/></g>
<g><path style="opacity:0.192" fill="#9f9f9f" d="M 224.5,204.5 C 226.027,204.427 227.027,205.094 227.5,206.5C 225.973,206.573 224.973,205.906 224.5,204.5 Z"/></g>
<g><path style="opacity:0.961" fill="#5f5f5f" d="M 288.5,203.5 C 288.013,204.473 287.513,205.473 287,206.5C 286.014,205.829 284.847,205.829 283.5,206.5C 284.659,204.75 286.326,203.75 288.5,203.5 Z"/></g>
<g><path style="opacity:0.051" fill="#d5d5d5" d="M 308.5,203.5 C 309.147,204.274 309.48,205.274 309.5,206.5C 309.36,208.03 308.693,209.03 307.5,209.5C 308.341,207.621 308.675,205.621 308.5,203.5 Z"/></g>
<g><path style="opacity:0.486" fill="#7c7c7d" d="M 283.5,206.5 C 283.027,207.906 282.027,208.573 280.5,208.5C 280.973,207.094 281.973,206.427 283.5,206.5 Z"/></g>
<g><path style="opacity:0.075" fill="#a6a6a9" d="M 207.5,208.5 C 209.153,208.66 210.486,209.326 211.5,210.5C 209.62,210.771 208.287,210.104 207.5,208.5 Z"/></g>
<g><path style="opacity:0.193" fill="#a9a9a9" d="M 168.5,205.5 C 168.5,211.167 168.5,216.833 168.5,222.5C 165.615,222.806 162.948,222.473 160.5,221.5C 162.833,221.5 165.167,221.5 167.5,221.5C 167.179,215.974 167.512,210.64 168.5,205.5 Z"/></g>
<g><path style="opacity:0.788" fill="#706f6f" d="M 223.5,212.5 C 226.516,213.343 229.183,214.843 231.5,217C 232.711,217.893 232.711,218.726 231.5,219.5C 227.795,218.314 224.462,216.648 221.5,214.5C 223.993,214.869 224.66,214.203 223.5,212.5 Z"/></g>
<g><path style="opacity:0.973" fill="#5a5a5b" d="M 255.5,216.5 C 254.135,218.86 252.135,220.527 249.5,221.5C 249.96,218.043 251.96,216.377 255.5,216.5 Z"/></g>
<g><path style="opacity:0.204" fill="#9c9ca1" d="M 269.5,215.5 C 267.969,216.925 268.302,217.591 270.5,217.5C 270.265,218.097 269.765,218.43 269,218.5C 265.758,217.207 265.925,216.207 269.5,215.5 Z"/></g>
<g><path style="opacity:0.557" fill="#8e8e8e" d="M 196.5,219.5 C 198.698,219.12 200.365,219.787 201.5,221.5C 199.597,221.204 197.93,220.537 196.5,219.5 Z"/></g>
<g><path style="opacity:0.082" fill="#a2a2a2" d="M 329.5,209.5 C 330.482,212.962 330.815,216.629 330.5,220.5C 332.5,220.5 334.5,220.5 336.5,220.5C 336.5,218.167 336.5,215.833 336.5,213.5C 337.473,215.948 337.806,218.615 337.5,221.5C 334.833,221.5 332.167,221.5 329.5,221.5C 329.5,217.5 329.5,213.5 329.5,209.5 Z"/></g>
<g><path style="opacity:0.071" fill="#cdcdcd" d="M 212.5,225.5 C 214.027,225.427 215.027,226.094 215.5,227.5C 213.973,227.573 212.973,226.906 212.5,225.5 Z"/></g>
<g><path style="opacity:0.998" fill="#212121" d="M 308.5,224.5 C 310.484,239.129 311.15,254.129 310.5,269.5C 296.712,275.819 282.712,281.652 268.5,287C 267.509,271.244 267.175,255.411 267.5,239.5C 281.329,234.959 294.996,229.959 308.5,224.5 Z"/></g>
<g><path style="opacity:0.049" fill="#e6e5e7" d="M 308.5,224.5 C 309.209,223.596 310.209,223.263 311.5,223.5C 311.83,239.009 311.496,254.342 310.5,269.5C 311.15,254.129 310.484,239.129 308.5,224.5 Z"/></g>
<g><path style="opacity:1" fill="#1d1d1e" d="M 188.5,224.5 C 201.549,229.681 214.549,235.014 227.5,240.5C 228.483,255.755 228.817,271.089 228.5,286.5C 228.565,286.938 228.399,287.272 228,287.5C 214.195,281.732 200.362,276.066 186.5,270.5C 185.849,254.797 186.516,239.464 188.5,224.5 Z"/></g>
<g><path style="opacity:0.087" fill="#dadadb" d="M 188.5,224.5 C 186.516,239.464 185.849,254.797 186.5,270.5C 185.504,255.009 185.17,239.342 185.5,223.5C 186.791,223.263 187.791,223.596 188.5,224.5 Z"/></g>
<g><path style="opacity:0.075" fill="#e8e8e8" d="M 227.5,240.5 C 228.831,247.803 229.498,255.47 229.5,263.5C 229.5,271.341 229.166,279.007 228.5,286.5C 228.817,271.089 228.483,255.755 227.5,240.5 Z"/></g>
<g><path style="opacity:0.322" fill="#909090" d="M 239.5,249.5 C 237.972,250.802 236.972,252.469 236.5,254.5C 236.5,252.5 236.5,250.5 236.5,248.5C 237.791,248.263 238.791,248.596 239.5,249.5 Z"/></g>
<g><path style="opacity:0.573" fill="#7f8281" d="M 260.5,256.5 C 259.539,254.735 259.205,252.735 259.5,250.5C 257.194,250.993 254.861,251.326 252.5,251.5C 259.01,246.313 261.677,247.979 260.5,256.5 Z"/></g>
<g><path style="opacity:0.996" fill="#1c1c1e" d="M 239.5,249.5 C 240.959,249.433 242.292,249.766 243.5,250.5C 243.611,251.117 243.944,251.617 244.5,252C 247.367,252.801 250.034,252.634 252.5,251.5C 254.861,251.326 257.194,250.993 259.5,250.5C 259.205,252.735 259.539,254.735 260.5,256.5C 261.55,256.905 261.55,257.571 260.5,258.5C 255.32,262.334 249.653,263.334 243.5,261.5C 242.486,260.326 241.153,259.66 239.5,259.5C 239.027,258.094 238.027,257.427 236.5,257.5C 236.5,256.5 236.5,255.5 236.5,254.5C 236.972,252.469 237.972,250.802 239.5,249.5 Z"/></g>
<g><path style="opacity:0.263" fill="#a6a6a7" d="M 243.5,250.5 C 246.43,251.299 249.43,251.632 252.5,251.5C 250.034,252.634 247.367,252.801 244.5,252C 243.944,251.617 243.611,251.117 243.5,250.5 Z"/></g>
<g><path style="opacity:0.173" fill="#9d9d9d" d="M 236.5,257.5 C 238.027,257.427 239.027,258.094 239.5,259.5C 237.973,259.573 236.973,258.906 236.5,257.5 Z"/></g>
<g><path style="opacity:0.012" fill="#c8c7c9" d="M 239.5,259.5 C 241.153,259.66 242.486,260.326 243.5,261.5C 241.62,261.771 240.287,261.104 239.5,259.5 Z"/></g>
<g><path style="opacity:0.322" fill="#9f9ea0" d="M 240.5,268.5 C 239.5,268.5 238.5,268.5 237.5,268.5C 237.5,275.5 237.5,282.5 237.5,289.5C 236.508,282.352 236.175,275.019 236.5,267.5C 238.099,267.232 239.432,267.566 240.5,268.5 Z"/></g>
<g><path style="opacity:0.915" fill="#474748" d="M 260.5,274.5 C 259.069,273.22 258.402,271.553 258.5,269.5C 257.5,269.5 256.5,269.5 255.5,269.5C 256.635,267.787 258.302,267.12 260.5,267.5C 260.5,269.833 260.5,272.167 260.5,274.5 Z"/></g>
<g><path style="opacity:1" fill="#1a1a1b" d="M 240.5,268.5 C 241.609,268.557 242.609,268.89 243.5,269.5C 246.539,272.017 249.539,272.017 252.5,269.5C 253.5,269.5 254.5,269.5 255.5,269.5C 256.5,269.5 257.5,269.5 258.5,269.5C 258.402,271.553 259.069,273.22 260.5,274.5C 260.223,279.233 260.557,283.9 261.5,288.5C 255.494,295.842 248.16,297.342 239.5,293C 238.177,292.184 237.511,291.017 237.5,289.5C 237.5,282.5 237.5,275.5 237.5,268.5C 238.5,268.5 239.5,268.5 240.5,268.5 Z"/></g>
<g><path style="opacity:0.4" fill="#a1a1a2" d="M 243.5,269.5 C 246.542,270.541 249.542,270.541 252.5,269.5C 249.539,272.017 246.539,272.017 243.5,269.5 Z"/></g>
<g><path style="opacity:0.122" fill="#9d9d9d" d="M 211.5,288.5 C 213.553,288.402 215.22,289.069 216.5,290.5C 214.447,290.598 212.78,289.931 211.5,288.5 Z"/></g>
<g><path style="opacity:0.004" fill="#e1e1e1" d="M 342.5,293.5 C 342.167,294.5 341.5,295.167 340.5,295.5C 340.5,294.167 341.167,293.5 342.5,293.5 Z"/></g>
<g><path style="opacity:0.094" fill="#b4b4b4" d="M 174.5,309.5 C 176.027,309.427 177.027,310.094 177.5,311.5C 175.973,311.573 174.973,310.906 174.5,309.5 Z"/></g>
<g><path style="opacity:0.004" fill="#cccccc" d="M 246.5,350.5 C 246.5,351.833 245.833,352.5 244.5,352.5C 244.833,351.5 245.5,350.833 246.5,350.5 Z"/></g>
<g><path style="opacity:0.004" fill="#cccacc" d="M 244.5,352.5 C 244.5,353.833 243.833,354.5 242.5,354.5C 242.833,353.5 243.5,352.833 244.5,352.5 Z"/></g>
<g><path style="opacity:0.835" fill="#5a5959" d="M 217.5,366.5 C 216.777,370.39 218.11,373.056 221.5,374.5C 220.365,376.213 218.698,376.88 216.5,376.5C 216.187,372.958 216.521,369.625 217.5,366.5 Z"/></g>
<g><path style="opacity:1" fill="#b9b9b9" d="M 236.5,391.5 C 253.958,391.008 271.291,392.175 288.5,395C 295.537,396.804 296.204,399.804 290.5,404C 265.642,409.153 240.642,409.82 215.5,406C 211.284,405.28 207.284,403.947 203.5,402C 202.14,400.062 202.473,398.396 204.5,397C 215.052,393.786 225.718,391.953 236.5,391.5 Z"/></g>
</svg>
