<svg width="1280" height="800" viewBox="0 0 1280 800" fill="none" xmlns="http://www.w3.org/2000/svg">
<path fill-rule="evenodd" clip-rule="evenodd" d="M878.181 169.772V453.147C878.181 531.346 814.694 594.834 736.493 594.834H438.026C359.826 594.834 296.338 531.346 296.338 453.147V169.772C296.338 91.5729 359.826 28.0844 438.026 28.0844H736.493C814.694 28.0844 878.181 91.5729 878.181 169.772Z" fill="black" stroke="black" stroke-width="0.0106621" stroke-miterlimit="1.5" stroke-linecap="round" stroke-linejoin="round"/>
<path fill-rule="evenodd" clip-rule="evenodd" d="M512.07 588.383L681.703 584.272L505.599 762.385L512.07 588.383Z" fill="black"/>
<path fill-rule="evenodd" clip-rule="evenodd" d="M512.07 588.383L505.599 762.385L681.703 584.272L512.07 588.383Z" stroke="black" stroke-width="15.14" stroke-miterlimit="1.5" stroke-linecap="round" stroke-linejoin="round"/>
<path d="M694.998 223.252C734.364 223.252 766.277 191.83 766.277 153.069C766.277 114.308 734.364 82.886 694.998 82.886C655.631 82.886 623.719 114.308 623.719 153.069C623.719 191.83 655.631 223.252 694.998 223.252Z" fill="black" stroke="white" stroke-width="23.0664" stroke-miterlimit="1.5" stroke-linecap="round" stroke-linejoin="round"/>
<path d="M590.213 288.598C603.828 239.904 606.663 235.421 638.223 203.747" stroke="white" stroke-width="23.08" stroke-miterlimit="1.5" stroke-linecap="round" stroke-linejoin="round"/>
<path d="M816.039 339.282C811.257 268.222 791.731 240.315 759.031 206.172" stroke="white" stroke-width="23.08" stroke-miterlimit="1.5" stroke-linecap="round" stroke-linejoin="round"/>
<path d="M485.532 222.705C446.166 222.705 414.253 191.283 414.253 152.522C414.253 113.761 446.166 82.3389 485.532 82.3389C524.898 82.3389 556.811 113.761 556.811 152.522C556.811 191.283 524.898 222.705 485.532 222.705Z" fill="#030000" stroke="white" stroke-width="23.0664" stroke-miterlimit="1.5" stroke-linecap="round" stroke-linejoin="round"/>
<path d="M590.317 288.051C576.702 239.357 573.867 234.874 542.307 203.2" stroke="white" stroke-width="23.08" stroke-miterlimit="1.5" stroke-linecap="round" stroke-linejoin="round"/>
<path d="M364.491 338.735C369.273 267.675 388.799 239.768 421.499 205.625" stroke="white" stroke-width="23.08" stroke-miterlimit="1.5" stroke-linecap="round" stroke-linejoin="round"/>
<path d="M428.715 301.591C583.599 364.125 577.112 363.297 595.552 364.145C613.993 364.993 711.813 319.79 735.199 308.74" stroke="white" stroke-width="23.08" stroke-miterlimit="1.5" stroke-linecap="round" stroke-linejoin="round"/>
<path d="M473.654 281.121C474.275 280.534 592.724 357.238 592.552 358.616C592.379 359.994 708.932 281.079 709.056 281.458" stroke="white" stroke-width="23.08" stroke-miterlimit="1.5" stroke-linecap="round" stroke-linejoin="round"/>
<path fill-rule="evenodd" clip-rule="evenodd" d="M629.029 389.68L630.405 535.466L767.534 482.636L766.971 336.394L629.029 389.68Z" fill="black" stroke="white" stroke-width="23.08" stroke-miterlimit="1.5" stroke-linecap="round" stroke-linejoin="round"/>
<path fill-rule="evenodd" clip-rule="evenodd" d="M544.985 390.418L542.577 537.183L406.293 482.571L407.669 341.196L544.985 390.418Z" stroke="white" stroke-width="23.08" stroke-miterlimit="1.5" stroke-linecap="round" stroke-linejoin="round"/>
<path d="M547.6 402.484C547.6 402.484 563.462 419.614 584.651 418.521C605.839 417.427 628.859 406.884 628.696 396.079" stroke="white" stroke-width="22.9117" stroke-miterlimit="1.5" stroke-linecap="round" stroke-linejoin="round"/>
<path fill-rule="evenodd" clip-rule="evenodd" d="M546.095 453.719C546.095 453.719 562.321 470.848 583.994 469.755C605.667 468.661 629.213 458.118 629.046 447.313" fill="black"/>
<path d="M546.095 453.719C546.095 453.719 562.321 470.848 583.994 469.755C605.667 468.661 629.213 458.118 629.046 447.313" stroke="white" stroke-width="22.8753" stroke-miterlimit="1.5" stroke-linecap="round" stroke-linejoin="round"/>
<path d="M546.366 538.359C546.366 538.359 562.976 555.488 585.162 554.395C607.348 553.301 631.453 542.758 631.282 531.953" stroke="white" stroke-width="22.8219" stroke-miterlimit="1.5" stroke-linecap="round" stroke-linejoin="round"/>
</svg>
